<?xml version="1.0" encoding="UTF-8"?><svg xmlns="http://www.w3.org/2000/svg" xmlns:xlink="http://www.w3.org/1999/xlink" version="1.1" x="0px" y="0px" viewBox="0 0 32 32" xml:space="preserve"><g id="Layer_7"><path fill="#999" d="M16 .016c-8.837 0-16 7.163-16 16 0 8.836 7.163 16 16 16s16-7.164 16-16c0-8.837-7.163-16-16-16z"/><path fill="#FFF" d="M24.007 12.481c0 4.658-2.59 8.139-6.407 8.139-1.283 0-2.488-.693-2.901-1.481 0 0-.69 2.736-.835 3.264-.514 1.866-2.027 3.733-2.144 3.886-.082.106-.263.073-.282-.068-.033-.238-.418-2.592.036-4.513l1.527-6.471s-.379-.758-.379-1.879c0-1.76 1.02-3.074 2.29-3.074 1.08 0 1.601.81 1.601 1.782 0 1.086-.691 2.71-1.048 4.214-.298 1.26.632 2.288 1.874 2.288 2.25 0 3.765-2.89 3.765-6.314 0-2.602-1.752-4.551-4.941-4.551-3.601 0-5.846 2.686-5.846 5.687 0 1.035.306 1.765.784 2.329.219.26.25.364.17.662-.058.219-.187.744-.243.953-.079.301-.323.408-.594.297-1.659-.677-2.432-2.495-2.432-4.537 0-3.373 2.845-7.418 8.487-7.418 4.535.003 7.518 3.283 7.518 6.805z"/></g><metadata><rdf:RDF xmlns:rdf="http://www.w3.org/1999/02/22-rdf-syntax-ns#" xmlns:rdfs="http://www.w3.org/2000/01/rdf-schema#" xmlns:dc="http://purl.org/dc/elements/1.1/"><rdf:Description about="https://iconscout.com/legal#licenses" dc:title="pinterest,online,social,media" dc:description="pinterest,online,social,media" dc:publisher="Iconscout" dc:date="2017-09-15" dc:format="image/svg+xml" dc:language="en"><dc:creator><rdf:Bag><rdf:li>Epicflaticon by Alfredo</rdf:li></rdf:Bag></dc:creator></rdf:Description></rdf:RDF></metadata></svg>