<?xml version="1.0" encoding="UTF-8"?>
<svg width="115px" height="28px" viewBox="0 0 115 28" version="1.1" xmlns="http://www.w3.org/2000/svg" xmlns:xlink="http://www.w3.org/1999/xlink">
    <!-- Generator: Sketch 51 (57462) - http://www.bohemiancoding.com/sketch -->
    <title>Pinterest_Logo</title>
    <desc>Created with Sketch.</desc>
    <defs>
        <polygon id="path-1" points="0 27.9552716 114.392971 27.9552716 114.392971 0 0 0"></polygon>
    </defs>
    <g id="Page-1" stroke="none" stroke-width="1" fill="none" fill-rule="evenodd">
        <g id="Pinterest_Logo" transform="translate(0.000000, -1.000000)">
            <g id="g10" transform="translate(57.500000, 14.955272) scale(-1, 1) rotate(-180.000000) translate(-57.500000, -14.955272) translate(0.000000, 0.955272)">
                <polygon id="path12" fill="#A1A7B3" fill-rule="nonzero" points="45.0634505 17.878738 48.6766134 17.878738 48.6766134 6.52968051 45.0634505 6.52968051"></polygon>
                <g id="g14">
                    <g id="g16-Clipped">
                        <mask id="mask-2" fill="white">
                            <use xlink:href="#path-1"></use>
                        </mask>
                        <g id="path20"></g>
                        <g id="g16" mask="url(#mask-2)">
                            <g transform="translate(0.111821, 0.223642)">
                                <g id="g22" transform="translate(49.319238, 6.249356)">
                                    <path d="M-1.61744952e-14,11.4057508 L3.48009585,11.4057508 L3.48009585,9.85412141 L3.54651757,9.85412141 C4.38886581,11.0733067 5.47498403,11.7381949 7.04886581,11.7381949 C9.53140575,11.7381949 10.994361,9.9649361 10.994361,7.43800319 L10.994361,0.0566932907 L7.3813099,0.0566932907 L7.3813099,6.70646965 C7.3813099,7.90351438 6.78284345,8.72372204 5.60805112,8.72372204 C4.41111821,8.72372204 3.61305112,7.72616613 3.61305112,6.32974441 L3.61305112,0.0566932907 L-1.77635684e-14,0.0566932907 L-1.61744952e-14,11.4057508 Z" id="path24" fill="#A1A7B3" fill-rule="nonzero"></path>
                                </g>
                                <g id="g26" transform="translate(44.564438, 18.455008)">
                                    <path d="M4.36102236,2.23642173 C4.36102236,3.43346645 3.39063898,4.40373802 2.19370607,4.40373802 C0.996773163,4.40373802 0.0263897764,3.43346645 0.0263897764,2.23642173 C0.0263897764,1.03948882 0.996773163,0.0692172524 2.19370607,0.0692172524 C3.39063898,0.0692172524 4.36102236,1.03948882 4.36102236,2.23642173" id="path28" fill="#A1A7B3" fill-rule="nonzero"></path>
                                </g>
                                <g id="g30" transform="translate(78.680246, 6.301454)">
                                    <path d="M7.04472843,11.5175719 C6.94162939,11.526853 6.8234345,11.5309904 6.68511182,11.5309904 C5.31083067,11.5309904 4.37992013,10.932524 3.58185304,9.58038339 L3.51543131,9.58038339 L3.51543131,11.3536422 L0.0574760383,11.3536422 L0.0574760383,0.00469648562 L3.67052716,0.00469648562 L3.67052716,5.10284345 C3.67052716,7.4650639 4.97872204,8.55968051 7.04472843,8.3686901 L7.04472843,11.5175719 Z" id="path32" fill="#A1A7B3" fill-rule="nonzero"></path>
                                </g>
                                <g id="g34" transform="translate(97.081904, 5.861974)">
                                    <path d="M6.37380192,7.60383387 C4.93298722,7.86974441 3.64738019,7.98055911 3.64738019,8.77851438 C3.64738019,9.48790735 4.33463259,9.82035144 5.22115016,9.82035144 C6.21859425,9.82035144 6.90584665,9.51004792 7.03880192,8.49035144 L10.3638019,8.49035144 C10.1864537,10.7291214 8.45747604,12.125655 5.24351438,12.125655 C2.56126198,12.125655 0.344632588,10.8843291 0.344632588,8.49035144 C0.344632588,5.83057508 2.45044728,5.29853035 4.42330671,4.96597444 C5.93054313,4.69995208 7.30482428,4.58913738 7.30482428,3.56955272 C7.30482428,2.83801917 6.61768371,2.43904153 5.5315655,2.43904153 C4.44186901,2.43904153 3.72118211,2.90007987 3.50022364,3.83546326 L0.0573642173,3.83546326 C0.310750799,1.50242812 2.35864217,0.089456869 5.55370607,0.089456869 C8.52400958,0.089456869 10.7183866,1.3750639 10.7183866,3.85760383 C10.7183866,6.76148562 8.36880192,7.27127796 6.37380192,7.60383387" id="path36" fill="#A1A7B3" fill-rule="nonzero"></path>
                                </g>
                                <g id="g38" transform="translate(85.403265, 5.911601)">
                                    <path d="M5.92651757,9.50479233 C7.1013099,9.50479233 7.94354633,8.64030351 8.07661342,7.28805112 L3.59907348,7.28805112 C3.84284345,8.64030351 4.55223642,9.50479233 5.92651757,9.50479233 M6.12600639,2.65552716 C4.64079872,2.65552716 3.7985623,3.60857827 3.57682109,5.13806709 L11.7340575,5.13806709 C11.7561981,7.44325879 11.0913099,9.41611821 9.73905751,10.6573323 C8.76375399,11.5439617 7.47814696,12.0760064 5.8598722,12.0760064 C2.40202875,12.0760064 0.0303035144,9.48265176 0.0303035144,6.09111821 C0.0303035144,2.65552716 2.33560703,0.0619488818 6.08161342,0.0619488818 C7.52231629,0.0619488818 8.67507987,0.438785942 9.62824281,1.10378594 C10.6256869,1.79092652 11.2906869,2.76623003 11.5344569,3.7858147 L8.01007987,3.7858147 C7.69966454,3.07653355 7.07916933,2.65552716 6.12600639,2.65552716" id="path40" fill="#A1A7B3" fill-rule="nonzero"></path>
                                </g>
                                <g id="g42" transform="translate(107.566227, 6.074915)">
                                    <path d="M6.59744409,2.90734824 C6.43004792,2.9007508 6.20528754,2.89102236 5.99875399,2.89102236 C5.22282748,2.89102236 4.73528754,3.11276358 4.73528754,3.99939297 L4.73528754,9.31928115 L6.59744409,9.31928115 L6.59744409,11.5801917 L4.73528754,11.5801917 L4.73528754,15.1711022 L1.21079872,15.1711022 L1.21079872,11.5801917 L0.10186901,11.5801917 L0.10186901,9.31928115 L1.21079872,9.31928115 L1.21079872,3.22357827 C1.21079872,0.785207668 2.71814696,0.0981789137 4.82396166,0.0981789137 C5.62739617,0.0981789137 6.23469649,0.158338658 6.59744409,0.229121406 L6.59744409,2.90734824 Z" id="path44" fill="#A1A7B3" fill-rule="nonzero"></path>
                                </g>
                                <g id="g46" transform="translate(60.280321, 6.069783)">
                                    <path d="M6.485623,2.90734824 C6.34148562,2.90175719 6.17509585,2.89616613 6.01966454,2.89616613 C5.24396166,2.89616613 4.75619808,3.11790735 4.75619808,4.00453674 L4.75619808,9.32442492 L6.485623,9.32442492 L6.485623,11.5853355 L4.75619808,11.5853355 L4.75619808,15.176246 L1.23182109,15.176246 L1.23182109,11.5853355 L0.0565814696,11.5853355 L0.0565814696,9.32442492 L1.23182109,9.32442492 L1.23182109,3.22872204 C1.23182109,0.790351438 2.73905751,0.103322684 4.8448722,0.103322684 C5.55739617,0.103322684 6.11527157,0.150734824 6.485623,0.210782748 L6.485623,2.90734824 Z" id="path48" fill="#A1A7B3" fill-rule="nonzero"></path>
                                </g>
                                <g id="g50" transform="translate(66.584783, 5.931315)">
                                    <path d="M8.05111821,7.26837061 C7.91816294,8.62051118 7.07570288,9.48511182 5.90091054,9.48511182 C4.52662939,9.48511182 3.81734824,8.62051118 3.57346645,7.26837061 L8.05111821,7.26837061 Z M0.00480830671,6.0714377 C0.00480830671,9.46285942 2.37653355,12.0562141 5.83448882,12.0562141 C7.45253994,12.0562141 8.73825879,11.5242812 9.7135623,10.6376518 C11.0657029,9.39632588 11.7305911,7.42357827 11.7084505,5.11827476 L3.5514377,5.11827476 C3.77295527,3.58889776 4.61530351,2.63573482 6.10051118,2.63573482 C7.0535623,2.63573482 7.67428115,3.05685304 7.98447284,3.76613419 L11.5089617,3.76613419 C11.2650799,2.74654952 10.6001917,1.77124601 9.60263578,1.08399361 C8.64958466,0.419105431 7.49693291,0.0422683706 6.05611821,0.0422683706 C2.31,0.0422683706 0.00480830671,2.63573482 0.00480830671,6.0714377 Z" id="path52" fill="#A1A7B3" fill-rule="nonzero"></path>
                                </g>
                                <g id="g54" transform="translate(32.191334, 6.208575)">
                                    <path d="M6.485623,8.49840256 C7.90429712,8.49840256 8.7022524,9.3407508 8.7022524,10.6043291 C8.7022524,11.8676837 7.88204473,12.6434984 6.485623,12.6434984 L3.71469649,12.6434984 L3.71469649,8.49840256 L6.485623,8.49840256 Z M0.0568051118,15.946246 L6.33108626,15.946246 C8.25944089,15.946246 9.67811502,15.4143131 10.6534185,14.4832907 C11.673115,13.5302396 12.2494409,12.1779872 12.2494409,10.5820767 C12.2494409,7.54535144 10.1436262,5.39514377 6.88515974,5.39514377 L3.71469649,5.39514377 L3.71469649,0.0975079872 L0.0568051118,0.0975079872 L0.0568051118,15.946246 Z" id="path56" fill="#A1A7B3" fill-rule="nonzero"></path>
                                </g>
                                <g id="g58" transform="translate(0.003847, 0.111810)">
                                    <path d="M27.284345,13.6421725 C27.284345,6.10833866 21.176901,0.00089456869 13.6430671,0.00089456869 C6.10923323,0.00089456869 0.00178913738,6.10833866 0.00178913738,13.6421725 C0.00178913738,21.1761182 6.10923323,27.2834505 13.6430671,27.2834505 C21.176901,27.2834505 27.284345,21.1761182 27.284345,13.6421725" id="path60" fill="#FFFFFF" fill-rule="nonzero"></path>
                                </g>
                                <g id="g62" transform="translate(0.004719, 0.110938)">
                                    <path d="M13.6421725,27.284345 C6.10833866,27.284345 0.00089456869,21.176901 0.00089456869,13.6430671 C0.00089456869,7.86392971 3.5965016,2.9235623 8.67094249,0.935942492 C8.55174121,2.01523962 8.44394569,3.67511182 8.71824281,4.85337061 C8.96615016,5.91801917 10.3178435,11.6339776 10.3178435,11.6339776 C10.3178435,11.6339776 9.90980831,12.4511661 9.90980831,13.6592812 C9.90980831,15.5561022 11.0092332,16.9722045 12.378147,16.9722045 C13.5419808,16.9722045 14.1041054,16.0984345 14.1041054,15.0506709 C14.1041054,13.8802396 13.3589297,12.1303514 12.974377,10.508722 C12.6530032,9.15099042 13.6552556,8.04373802 14.9944249,8.04373802 C17.4189297,8.04373802 19.2826518,10.6001917 19.2826518,14.2903994 C19.2826518,17.5565815 16.9357508,19.8401917 13.5845847,19.8401917 C9.70316294,19.8401917 7.42492013,16.9289297 7.42492013,13.9202716 C7.42492013,12.7478275 7.8765655,11.490623 8.44014377,10.8071725 C8.55162939,10.6720927 8.56795527,10.5537859 8.53474441,10.4159105 C8.43119808,9.9850639 8.20107029,9.05851438 8.15589457,8.86886581 C8.09640575,8.61916933 7.95819489,8.56616613 7.69966454,8.68648562 C5.99595847,9.47952077 4.9307508,11.9704473 4.9307508,13.9711502 C4.9307508,18.2742492 8.05726837,22.2261182 13.9440895,22.2261182 C18.676246,22.2261182 22.3537061,18.8540415 22.3537061,14.3475399 C22.3537061,9.64624601 19.3894409,5.86266773 15.2750958,5.86266773 C13.8927636,5.86266773 12.5932907,6.58078275 12.1484665,7.42905751 C12.1484665,7.42905751 11.4644569,4.82452077 11.2986262,4.18624601 C10.9906709,3.00138978 10.1592812,1.51618211 9.60319489,0.610095847 C10.8795208,0.214920128 12.2359105,0.00178913738 13.6421725,0.00178913738 C21.1761182,0.00178913738 27.2835623,6.10923323 27.2835623,13.6430671 C27.2835623,21.176901 21.1761182,27.284345 13.6421725,27.284345" id="path64" fill="#A1A7B3" fill-rule="nonzero"></path>
                                </g>
                            </g>
                        </g>
                    </g>
                </g>
            </g>
        </g>
    </g>
</svg>